<svg width="158" height="158" viewBox="0 0 158 158" fill="none" xmlns="http://www.w3.org/2000/svg">
<g id="Group 68">
<g id="Group 65">
<circle id="Ellipse 5" cx="78.7085" cy="78.7085" r="78.2085" stroke="#E1E1E1"/>
<g id="Group 63">
<g id="Group">
<g id="Group_2">
<g id="Group_3">
<path id="Vector" d="M47.0433 43.1354H42.7539C40.7507 43.1354 39.127 44.7592 39.127 46.7623V55.3294C39.127 57.6593 40.0526 59.8938 41.6999 61.5413L47.0433 66.8846V43.1354Z" fill="url(#paint0_linear_64_2271)"/>
<path id="Vector_2" d="M47.0432 47.9375H45.0239C43.0208 47.9375 41.397 49.5613 41.397 51.5645V55.358C41.397 59.0524 42.8452 62.5998 45.4308 65.2387L47.0432 66.8845V47.9375Z" fill="url(#paint1_linear_64_2271)"/>
</g>
<g id="Group_4">
<path id="Vector_3" d="M110.374 43.1356H114.663C116.667 43.1356 118.29 44.7594 118.29 46.7626V55.3297C118.29 57.6596 117.365 59.894 115.717 61.5415L110.374 66.8848V43.1356Z" fill="url(#paint2_linear_64_2271)"/>
<path id="Vector_4" d="M110.374 47.9377H112.393C114.396 47.9377 116.02 49.5615 116.02 51.5647V55.3582C116.02 59.0527 114.572 62.6 111.986 65.2389L110.374 66.8848V47.9377Z" fill="url(#paint3_linear_64_2271)"/>
</g>
</g>
<g id="Group_5">
<path id="Vector_5" d="M89.0117 39.5263H68.4058L70.5551 32.7081C71.1434 30.8417 72.8743 29.5726 74.8312 29.5726H82.5864C84.5433 29.5726 86.274 30.8417 86.8624 32.7081L89.0117 39.5263Z" fill="url(#paint4_linear_64_2271)"/>
<path id="Vector_6" d="M86.1299 39.5263H71.2866L73.2025 33.2354C73.4074 32.5623 74.0105 32.1047 74.6922 32.1047H82.7243C83.406 32.1047 84.009 32.5623 84.2139 33.2354L86.1299 39.5263Z" fill="url(#paint5_linear_64_2271)"/>
<path id="Vector_7" d="M60.3727 38.3621H52.3398V36.7948C52.3398 35.8602 53.0975 35.1024 54.0322 35.1024H58.6803C59.6149 35.1024 60.3727 35.8601 60.3727 36.7948V38.3621Z" fill="url(#paint6_linear_64_2271)"/>
<g id="Group_6">
<path id="Vector_8" d="M47.3923 49.1888H44.0054C43.2397 49.1888 42.6191 48.568 42.6191 47.8025V43.4736C42.6191 42.7079 43.2399 42.0873 44.0054 42.0873H47.3923V49.1888Z" fill="url(#paint7_linear_64_2271)"/>
<path id="Vector_9" d="M110.025 49.1888H113.412C114.177 49.1888 114.798 48.568 114.798 47.8025V43.4736C114.798 42.7079 114.177 42.0873 113.412 42.0873H110.025V49.1888Z" fill="url(#paint8_linear_64_2271)"/>
</g>
<path id="Vector_10" d="M105.826 88.2471H51.5914C48.3403 88.2471 45.7046 85.6114 45.7046 82.3603V43.8416C45.7046 40.5904 48.3403 37.9547 51.5914 37.9547H105.826C109.078 37.9547 111.713 40.5904 111.713 43.8416V82.3603C111.713 85.6114 109.078 88.2471 105.826 88.2471Z" fill="url(#paint9_linear_64_2271)"/>
<path id="Vector_11" d="M111.712 82.3601V66.3394L94.36 48.9874C90.5215 44.9272 85.0852 42.3932 79.0568 42.3932C67.4275 42.3932 58 51.8207 58 63.45C58 69.4784 60.534 74.9147 64.5942 78.7532L74.088 88.247H105.825C109.076 88.247 111.712 85.6114 111.712 82.3601Z" fill="url(#paint10_linear_64_2271)"/>
<path id="Vector_12" d="M45.7046 68.5134V82.3601C45.7046 85.6114 48.3403 88.247 51.5914 88.247H105.826C109.078 88.247 111.713 85.6114 111.713 82.3601V68.5134H45.7046Z" fill="url(#paint11_linear_64_2271)"/>
<path id="Vector_13" d="M45.7046 68.0487V82.3603C45.7046 85.6116 48.3403 88.2472 51.5914 88.2472H105.826C109.078 88.2472 111.713 85.6116 111.713 82.3603V68.0487H45.7046Z" fill="url(#paint12_linear_64_2271)"/>
<g id="Group_7">
<path id="Vector_14" d="M78.7087 84.1577C90.3381 84.1577 99.7655 74.7303 99.7655 63.1009C99.7655 51.4715 90.3381 42.0441 78.7087 42.0441C67.0793 42.0441 57.6519 51.4715 57.6519 63.1009C57.6519 74.7303 67.0793 84.1577 78.7087 84.1577Z" fill="url(#paint13_linear_64_2271)"/>
<path id="Vector_15" d="M78.7081 81.4102C88.8201 81.4102 97.0174 73.2129 97.0174 63.101C97.0174 52.9891 88.8201 44.7917 78.7081 44.7917C68.5962 44.7917 60.3989 52.9891 60.3989 63.101C60.3989 73.2129 68.5962 81.4102 78.7081 81.4102Z" fill="url(#paint14_linear_64_2271)"/>
<path id="Vector_16" d="M78.7086 78.3739C87.1437 78.3739 93.9817 71.5359 93.9817 63.1008C93.9817 54.6657 87.1437 47.8278 78.7086 47.8278C70.2735 47.8278 63.4355 54.6657 63.4355 63.1008C63.4355 71.5359 70.2735 78.3739 78.7086 78.3739Z" fill="url(#paint15_linear_64_2271)"/>
</g>
</g>
</g>
<g id="Turn On Your Camera">
<path d="M27.0642 115.561V108.255H24.4551V106.767H31.4428V108.255H28.8396V115.561H27.0642Z" fill="black"/>
<path d="M33.4924 106.767H35.2678V111.53C35.2678 112.286 35.2898 112.775 35.3338 112.999C35.4097 113.359 35.5897 113.649 35.8736 113.869C36.1615 114.085 36.5534 114.193 37.0492 114.193C37.553 114.193 37.9329 114.091 38.1888 113.887C38.4447 113.679 38.5987 113.425 38.6507 113.125C38.7027 112.825 38.7286 112.328 38.7286 111.632V106.767H40.5041V111.386C40.5041 112.442 40.4561 113.187 40.3601 113.623C40.2641 114.059 40.0862 114.427 39.8263 114.727C39.5704 115.027 39.2265 115.267 38.7946 115.447C38.3628 115.622 37.7989 115.71 37.1032 115.71C36.2634 115.71 35.6257 115.614 35.1898 115.423C34.7579 115.227 34.416 114.975 34.1641 114.667C33.9122 114.355 33.7463 114.029 33.6663 113.689C33.5503 113.185 33.4924 112.442 33.4924 111.458V106.767Z" fill="black"/>
<path d="M43.2974 115.561V106.767H47.0342C47.9738 106.767 48.6556 106.847 49.0795 107.007C49.5073 107.163 49.8492 107.443 50.1052 107.847C50.3611 108.251 50.489 108.713 50.489 109.233C50.489 109.892 50.2951 110.438 49.9072 110.87C49.5193 111.298 48.9395 111.568 48.1678 111.68C48.5517 111.904 48.8676 112.15 49.1155 112.418C49.3674 112.685 49.7053 113.161 50.1291 113.845L51.2028 115.561H49.0795L47.7959 113.647C47.3401 112.963 47.0282 112.534 46.8602 112.358C46.6923 112.178 46.5143 112.056 46.3264 111.992C46.1384 111.924 45.8405 111.89 45.4327 111.89H45.0728V115.561H43.2974ZM45.0728 110.486H46.3864C47.2381 110.486 47.7699 110.45 47.9818 110.378C48.1938 110.306 48.3597 110.182 48.4797 110.006C48.5996 109.83 48.6596 109.61 48.6596 109.347C48.6596 109.051 48.5797 108.813 48.4197 108.633C48.2638 108.449 48.0418 108.333 47.7539 108.285C47.61 108.265 47.1781 108.255 46.4583 108.255H45.0728V110.486Z" fill="black"/>
<path d="M53.0964 115.561V106.767H54.8238L58.4227 112.639V106.767H60.0721V115.561H58.2907L54.7459 109.826V115.561H53.0964Z" fill="black"/>
<path d="M66.8344 111.218C66.8344 110.322 66.9683 109.57 67.2362 108.963C67.4362 108.515 67.7081 108.113 68.052 107.757C68.3999 107.401 68.7797 107.137 69.1916 106.965C69.7394 106.733 70.3712 106.617 71.087 106.617C72.3826 106.617 73.4182 107.019 74.194 107.823C74.9737 108.627 75.3636 109.744 75.3636 111.176C75.3636 112.595 74.9777 113.707 74.206 114.511C73.4342 115.311 72.4025 115.71 71.111 115.71C69.8034 115.71 68.7637 115.313 67.992 114.517C67.2202 113.717 66.8344 112.617 66.8344 111.218ZM68.6638 111.158C68.6638 112.154 68.8937 112.909 69.3535 113.425C69.8134 113.937 70.3972 114.193 71.105 114.193C71.8127 114.193 72.3925 113.939 72.8444 113.431C73.3003 112.919 73.5282 112.154 73.5282 111.134C73.5282 110.126 73.3063 109.375 72.8624 108.879C72.4225 108.383 71.8367 108.135 71.105 108.135C70.3732 108.135 69.7834 108.387 69.3355 108.891C68.8877 109.391 68.6638 110.146 68.6638 111.158Z" fill="black"/>
<path d="M77.683 115.561V106.767H79.4105L83.0093 112.639V106.767H84.6588V115.561H82.8773L79.3325 109.826V115.561H77.683Z" fill="black"/>
<path d="M93.8622 115.561V111.86L90.6413 106.767H92.7226L94.7919 110.246L96.8192 106.767H98.8646L95.6316 111.872V115.561H93.8622Z" fill="black"/>
<path d="M100.296 111.218C100.296 110.322 100.43 109.57 100.698 108.963C100.898 108.515 101.17 108.113 101.514 107.757C101.862 107.401 102.242 107.137 102.654 106.965C103.201 106.733 103.833 106.617 104.549 106.617C105.845 106.617 106.88 107.019 107.656 107.823C108.436 108.627 108.826 109.744 108.826 111.176C108.826 112.595 108.44 113.707 107.668 114.511C106.896 115.311 105.865 115.71 104.573 115.71C103.265 115.71 102.226 115.313 101.454 114.517C100.682 113.717 100.296 112.617 100.296 111.218ZM102.126 111.158C102.126 112.154 102.356 112.909 102.816 113.425C103.275 113.937 103.859 114.193 104.567 114.193C105.275 114.193 105.855 113.939 106.306 113.431C106.762 112.919 106.99 112.154 106.99 111.134C106.99 110.126 106.768 109.375 106.324 108.879C105.885 108.383 105.299 108.135 104.567 108.135C103.835 108.135 103.245 108.387 102.798 108.891C102.35 109.391 102.126 110.146 102.126 111.158Z" fill="black"/>
<path d="M111.115 106.767H112.89V111.53C112.89 112.286 112.912 112.775 112.956 112.999C113.032 113.359 113.212 113.649 113.496 113.869C113.784 114.085 114.176 114.193 114.672 114.193C115.176 114.193 115.556 114.091 115.811 113.887C116.067 113.679 116.221 113.425 116.273 113.125C116.325 112.825 116.351 112.328 116.351 111.632V106.767H118.127V111.386C118.127 112.442 118.079 113.187 117.983 113.623C117.887 114.059 117.709 114.427 117.449 114.727C117.193 115.027 116.849 115.267 116.417 115.447C115.985 115.622 115.422 115.71 114.726 115.71C113.886 115.71 113.248 115.614 112.812 115.423C112.381 115.227 112.039 114.975 111.787 114.667C111.535 114.355 111.369 114.029 111.289 113.689C111.173 113.185 111.115 112.442 111.115 111.458V106.767Z" fill="black"/>
<path d="M120.92 115.561V106.767H124.657C125.597 106.767 126.278 106.847 126.702 107.007C127.13 107.163 127.472 107.443 127.728 107.847C127.984 108.251 128.112 108.713 128.112 109.233C128.112 109.892 127.918 110.438 127.53 110.87C127.142 111.298 126.562 111.568 125.79 111.68C126.174 111.904 126.49 112.15 126.738 112.418C126.99 112.685 127.328 113.161 127.752 113.845L128.825 115.561H126.702L125.419 113.647C124.963 112.963 124.651 112.534 124.483 112.358C124.315 112.178 124.137 112.056 123.949 111.992C123.761 111.924 123.463 111.89 123.055 111.89H122.695V115.561H120.92ZM122.695 110.486H124.009C124.861 110.486 125.393 110.45 125.605 110.378C125.816 110.306 125.982 110.182 126.102 110.006C126.222 109.83 126.282 109.61 126.282 109.347C126.282 109.051 126.202 108.813 126.042 108.633C125.886 108.449 125.664 108.333 125.377 108.285C125.233 108.265 124.801 108.255 124.081 108.255H122.695V110.486Z" fill="black"/>
<path d="M55.9866 126.431L57.708 126.977C57.4441 127.937 57.0042 128.651 56.3884 129.119C55.7766 129.582 54.9989 129.814 54.0552 129.814C52.8876 129.814 51.9279 129.416 51.1761 128.621C50.4244 127.821 50.0485 126.729 50.0485 125.346C50.0485 123.882 50.4264 122.747 51.1821 121.939C51.9379 121.127 52.9316 120.721 54.1632 120.721C55.2388 120.721 56.1125 121.039 56.7843 121.675C57.1842 122.051 57.4841 122.591 57.684 123.294L55.9266 123.714C55.8226 123.258 55.6047 122.899 55.2728 122.635C54.9449 122.371 54.545 122.239 54.0732 122.239C53.4214 122.239 52.8916 122.473 52.4837 122.941C52.0798 123.408 51.8779 124.166 51.8779 125.214C51.8779 126.325 52.0778 127.117 52.4777 127.589C52.8776 128.061 53.3974 128.297 54.0372 128.297C54.5091 128.297 54.9149 128.147 55.2548 127.847C55.5947 127.547 55.8386 127.075 55.9866 126.431Z" fill="black"/>
<path d="M68.0768 129.664H66.1455L65.3777 127.667H61.8629L61.1371 129.664H59.2537L62.6786 120.871H64.556L68.0768 129.664ZM64.8079 126.185L63.5963 122.923L62.4087 126.185H64.8079Z" fill="black"/>
<path d="M69.9105 129.664V120.871H72.5676L74.1631 126.869L75.7406 120.871H78.4037V129.664H76.7542V122.743L75.0088 129.664H73.2994L71.5599 122.743V129.664H69.9105Z" fill="black"/>
<path d="M81.077 129.664V120.871H87.5969V122.359H82.8525V124.308H87.267V125.79H82.8525V128.183H87.7649V129.664H81.077Z" fill="black"/>
<path d="M90.1863 129.664V120.871H93.9231C94.8628 120.871 95.5445 120.951 95.9684 121.111C96.3963 121.267 96.7382 121.547 96.9941 121.951C97.25 122.355 97.378 122.817 97.378 123.336C97.378 123.996 97.184 124.542 96.7961 124.974C96.4083 125.402 95.8285 125.672 95.0567 125.784C95.4406 126.008 95.7565 126.253 96.0044 126.521C96.2563 126.789 96.5942 127.265 97.0181 127.949L98.0917 129.664H95.9684L94.6848 127.751C94.229 127.067 93.9171 126.637 93.7491 126.461C93.5812 126.281 93.4033 126.159 93.2153 126.096C93.0274 126.028 92.7295 125.994 92.3216 125.994H91.9617V129.664H90.1863ZM91.9617 124.59H93.2753C94.127 124.59 94.6588 124.554 94.8708 124.482C95.0827 124.41 95.2486 124.286 95.3686 124.11C95.4886 123.934 95.5485 123.714 95.5485 123.45C95.5485 123.154 95.4686 122.917 95.3086 122.737C95.1527 122.553 94.9307 122.437 94.6428 122.389C94.4989 122.369 94.067 122.359 93.3473 122.359H91.9617V124.59Z" fill="black"/>
<path d="M107.897 129.664H105.965L105.198 127.667H101.683L100.957 129.664H99.0736L102.499 120.871H104.376L107.897 129.664ZM104.628 126.185L103.416 122.923L102.229 126.185H104.628Z" fill="black"/>
</g>
</g>
</g>
</g>
<defs>
<linearGradient id="paint0_linear_64_2271" x1="40.655" y1="48.6216" x2="52.9245" y2="60.8911" gradientUnits="userSpaceOnUse">
<stop stop-color="#76E2F8"/>
<stop offset="1" stop-color="#48B2E3"/>
</linearGradient>
<linearGradient id="paint1_linear_64_2271" x1="46.694" y1="57.4111" x2="39.6741" y2="57.4111" gradientUnits="userSpaceOnUse">
<stop stop-color="#48B2E3" stop-opacity="0"/>
<stop offset="0.4112" stop-color="#2995BF" stop-opacity="0.411"/>
<stop offset="0.7781" stop-color="#1381A6" stop-opacity="0.778"/>
<stop offset="1" stop-color="#0B799D"/>
</linearGradient>
<linearGradient id="paint2_linear_64_2271" x1="116.763" y1="48.6218" x2="104.493" y2="60.8913" gradientUnits="userSpaceOnUse">
<stop stop-color="#76E2F8"/>
<stop offset="1" stop-color="#48B2E3"/>
</linearGradient>
<linearGradient id="paint3_linear_64_2271" x1="110.723" y1="57.4113" x2="117.743" y2="57.4113" gradientUnits="userSpaceOnUse">
<stop stop-color="#48B2E3" stop-opacity="0"/>
<stop offset="0.4112" stop-color="#2995BF" stop-opacity="0.411"/>
<stop offset="0.7781" stop-color="#1381A6" stop-opacity="0.778"/>
<stop offset="1" stop-color="#0B799D"/>
</linearGradient>
<linearGradient id="paint4_linear_64_2271" x1="78.7087" y1="35.6538" x2="78.7087" y2="41.0478" gradientUnits="userSpaceOnUse">
<stop stop-color="#FFDA2D"/>
<stop offset="1" stop-color="#FDBF00"/>
</linearGradient>
<linearGradient id="paint5_linear_64_2271" x1="78.7082" y1="36.639" x2="78.7082" y2="40.6608" gradientUnits="userSpaceOnUse">
<stop stop-color="#EDF5FF"/>
<stop offset="1" stop-color="#D5E8FE"/>
</linearGradient>
<linearGradient id="paint6_linear_64_2271" x1="56.3562" y1="37.0939" x2="56.3562" y2="38.8604" gradientUnits="userSpaceOnUse">
<stop stop-color="#FF9100"/>
<stop offset="1" stop-color="#E63950"/>
</linearGradient>
<linearGradient id="paint7_linear_64_2271" x1="45.0057" y1="46.4259" x2="45.0057" y2="50.2742" gradientUnits="userSpaceOnUse">
<stop stop-color="#FFDA2D"/>
<stop offset="1" stop-color="#FDBF00"/>
</linearGradient>
<linearGradient id="paint8_linear_64_2271" x1="112.411" y1="46.4259" x2="112.411" y2="50.2742" gradientUnits="userSpaceOnUse">
<stop stop-color="#FFDA2D"/>
<stop offset="1" stop-color="#FDBF00"/>
</linearGradient>
<linearGradient id="paint9_linear_64_2271" x1="63.9246" y1="48.3165" x2="90.1061" y2="74.498" gradientUnits="userSpaceOnUse">
<stop stop-color="#B9DD39"/>
<stop offset="1" stop-color="#90CC1C"/>
</linearGradient>
<linearGradient id="paint10_linear_64_2271" x1="98.4404" y1="82.8335" x2="54.6579" y2="39.0511" gradientUnits="userSpaceOnUse">
<stop stop-color="#07485E" stop-opacity="0"/>
<stop offset="0.2898" stop-color="#064155" stop-opacity="0.29"/>
<stop offset="0.7606" stop-color="#042E3D" stop-opacity="0.761"/>
<stop offset="1" stop-color="#03232E"/>
</linearGradient>
<linearGradient id="paint11_linear_64_2271" x1="78.709" y1="67.8157" x2="78.709" y2="89.3295" gradientUnits="userSpaceOnUse">
<stop stop-color="#66BB00"/>
<stop offset="1" stop-color="#0B799D"/>
</linearGradient>
<linearGradient id="paint12_linear_64_2271" x1="78.709" y1="80.2143" x2="78.709" y2="91.4027" gradientUnits="userSpaceOnUse">
<stop stop-color="#07485E" stop-opacity="0"/>
<stop offset="0.2898" stop-color="#064155" stop-opacity="0.29"/>
<stop offset="0.7606" stop-color="#042E3D" stop-opacity="0.761"/>
<stop offset="1" stop-color="#03232E"/>
</linearGradient>
<linearGradient id="paint13_linear_64_2271" x1="70.6604" y1="55.0526" x2="84.9131" y2="69.3053" gradientUnits="userSpaceOnUse">
<stop stop-color="#FFDA2D"/>
<stop offset="1" stop-color="#FDBF00"/>
</linearGradient>
<linearGradient id="paint14_linear_64_2271" x1="85.7062" y1="70.0991" x2="73.3134" y2="57.7062" gradientUnits="userSpaceOnUse">
<stop stop-color="#FFDA2D"/>
<stop offset="1" stop-color="#FDBF00"/>
</linearGradient>
<linearGradient id="paint15_linear_64_2271" x1="73.5572" y1="57.9494" x2="87.5545" y2="71.9467" gradientUnits="userSpaceOnUse">
<stop stop-color="#0B799D"/>
<stop offset="1" stop-color="#07485E"/>
</linearGradient>
</defs>
</svg>
