<svg width="158" height="158" viewBox="0 0 158 158" fill="none" xmlns="http://www.w3.org/2000/svg">
<g id="Group 67">
<circle id="Ellipse 7" cx="79.2915" cy="78.7085" r="78.2085" stroke="#E1E1E1"/>
<g id="Group 66">
<g id="Group">
<path id="Vector" d="M66.5495 83.5614C55.7548 82.4349 51.5381 76.3733 51.5381 76.3733C63.3976 59.5064 71.9909 42.3816 71.9909 42.3816H86.9987C86.9987 42.3816 95.592 59.5064 107.452 76.3733C107.452 76.3733 103.193 82.4349 92.4401 83.5614H66.5495Z" fill="#FE93BC"/>
<path id="Vector_2" d="M86.9985 42.3816H81.7275C81.7275 42.3816 90.3208 59.5064 102.18 76.3733C102.18 76.3733 97.922 82.4349 87.169 83.5614H92.4399C103.193 82.4349 107.451 76.3733 107.451 76.3733C95.5918 59.5064 86.9985 42.3816 86.9985 42.3816Z" fill="#FE7AAC"/>
<path id="Vector_3" d="M84.6257 43.7045C84.6257 43.7045 87.3561 65.5453 92.8701 85.294C88.7035 87.6078 83.7814 88.786 79.5091 88.7146C71.7196 88.7146 66.0781 85.294 66.0781 85.294C71.5922 65.5453 74.3554 43.6217 74.3554 43.6217L74.4009 41.849H84.4815L84.6257 43.7045Z" fill="#FE66A0"/>
<g id="Group_2">
<path id="Vector_4" d="M68.9699 34.9761C64.1441 34.9761 61.2451 30.8677 61.2451 30.8677C66.5494 28.408 68.2123 23.203 68.2123 23.203H69.7945L68.9699 34.9761Z" fill="#FE93BC"/>
<path id="Vector_5" d="M90.0191 34.976C94.8449 34.976 97.7439 30.8676 97.7439 30.8676C92.4397 28.4079 90.7766 23.2029 90.7766 23.2029H88.5889L90.0191 34.976Z" fill="#FE93BC"/>
<path id="Vector_6" d="M71.2539 23.2029C71.2539 26.0569 73.2886 26.9535 76.2615 28.8136C79.1989 30.6515 79.4738 33.716 79.4738 33.716C79.4738 33.716 79.7486 30.6515 82.686 28.8136C85.6588 26.9535 87.6935 26.0569 87.6935 23.2029V35.1283H71.2539V23.2029Z" fill="#FE93BC"/>
</g>
<path id="Vector_7" d="M86.9574 42.3816C92.3441 33.7161 90.7357 23.203 90.7357 23.203H87.6941C87.6941 23.203 89.4265 33.7161 79.4743 33.7161C69.522 33.7161 71.2545 23.203 71.2545 23.203H68.2129C68.2129 23.203 66.6923 33.7161 71.9913 42.3816C77.5999 44.8453 81.3489 44.8453 86.9574 42.3816Z" fill="#FFD6E8"/>
<g id="Group_3">
<path id="Vector_8" d="M90.7348 23.203H87.6932C87.6932 23.203 88.593 28.6667 85.3664 31.7165C84.9114 35.0221 83.8779 38.8549 81.6854 42.3816C79.9247 43.1551 78.3472 43.6854 76.8379 43.9732C80.136 44.6021 83.1086 44.0717 86.9563 42.3816C92.3432 33.7161 90.7348 23.203 90.7348 23.203Z" fill="#FFCCE2"/>
</g>
<path id="Vector_9" d="M99.1108 42.3816L100.361 45.2125L102.646 46.4625L100.361 47.7125L99.1108 50.5433L97.8608 47.7125L95.5752 46.4625L97.8608 45.2125L99.1108 42.3816Z" fill="#FFED59"/>
<path id="Vector_10" d="M58.9257 59.0309L60.6621 62.963L63.8369 64.6994L60.6621 66.4357L58.9257 70.3678L57.1895 66.4357L54.0146 64.6994L57.1895 62.963L58.9257 59.0309Z" fill="#FFED59"/>
</g>
<g id="Live Try Your Outfit">
<path d="M28.1084 117.835V109.114H29.8838V116.354H34.2984V117.835H28.1084Z" fill="black"/>
<path d="M36.4259 117.835V109.042H38.2013V117.835H36.4259Z" fill="black"/>
<path d="M43.052 117.835L39.909 109.042H41.8344L44.0596 115.55L46.2129 109.042H48.0963L44.9473 117.835H43.052Z" fill="black"/>
<path d="M49.9119 117.835V109.042H56.4318V110.53H51.6874V112.479H56.1019V113.961H51.6874V116.354H56.5998V117.835H49.9119Z" fill="black"/>
<path d="M65.3234 117.835V110.53H62.7142V109.042H69.7019V110.53H67.0988V117.835H65.3234Z" fill="black"/>
<path d="M71.7695 117.835V109.042H75.5063C76.446 109.042 77.1277 109.122 77.5516 109.282C77.9795 109.438 78.3213 109.718 78.5773 110.122C78.8332 110.526 78.9611 110.988 78.9611 111.507C78.9611 112.167 78.7672 112.713 78.3793 113.145C77.9915 113.573 77.4116 113.843 76.6399 113.955C77.0238 114.178 77.3397 114.424 77.5876 114.692C77.8395 114.96 78.1774 115.436 78.6013 116.12L79.6749 117.835H77.5516L76.268 115.922C75.8122 115.238 75.5003 114.808 75.3323 114.632C75.1644 114.452 74.9864 114.33 74.7985 114.266C74.6106 114.198 74.3127 114.164 73.9048 114.164H73.5449V117.835H71.7695ZM73.5449 112.761H74.8585C75.7102 112.761 76.242 112.725 76.454 112.653C76.6659 112.581 76.8318 112.457 76.9518 112.281C77.0718 112.105 77.1317 111.885 77.1317 111.621C77.1317 111.325 77.0518 111.087 76.8918 110.908C76.7359 110.724 76.5139 110.608 76.226 110.56C76.0821 110.54 75.6502 110.53 74.9305 110.53H73.5449V112.761Z" fill="black"/>
<path d="M83.4039 117.835V114.135L80.183 109.042H82.2643L84.3336 112.521L86.3609 109.042H88.4063L85.1733 114.146V117.835H83.4039Z" fill="black"/>
<path d="M96.3801 117.835V114.135L93.1592 109.042H95.2405L97.3098 112.521L99.3372 109.042H101.382L98.1495 114.146V117.835H96.3801Z" fill="black"/>
<path d="M102.814 113.493C102.814 112.597 102.948 111.845 103.216 111.237C103.416 110.79 103.688 110.388 104.032 110.032C104.38 109.676 104.76 109.412 105.171 109.24C105.719 109.008 106.351 108.892 107.067 108.892C108.362 108.892 109.398 109.294 110.174 110.098C110.954 110.902 111.343 112.019 111.343 113.451C111.343 114.87 110.958 115.982 110.186 116.786C109.414 117.585 108.382 117.985 107.091 117.985C105.783 117.985 104.744 117.587 103.972 116.792C103.2 115.992 102.814 114.892 102.814 113.493ZM104.644 113.433C104.644 114.428 104.874 115.184 105.333 115.7C105.793 116.212 106.377 116.468 107.085 116.468C107.793 116.468 108.372 116.214 108.824 115.706C109.28 115.194 109.508 114.428 109.508 113.409C109.508 112.401 109.286 111.649 108.842 111.153C108.402 110.658 107.817 110.41 107.085 110.41C106.353 110.41 105.763 110.662 105.315 111.165C104.868 111.665 104.644 112.421 104.644 113.433Z" fill="black"/>
<path d="M113.633 109.042H115.408V113.805C115.408 114.56 115.43 115.05 115.474 115.274C115.55 115.634 115.73 115.924 116.014 116.144C116.302 116.36 116.694 116.468 117.19 116.468C117.694 116.468 118.073 116.366 118.329 116.162C118.585 115.954 118.739 115.7 118.791 115.4C118.843 115.1 118.869 114.602 118.869 113.907V109.042H120.645V113.661C120.645 114.716 120.597 115.462 120.501 115.898C120.405 116.334 120.227 116.702 119.967 117.002C119.711 117.301 119.367 117.541 118.935 117.721C118.503 117.897 117.94 117.985 117.244 117.985C116.404 117.985 115.766 117.889 115.33 117.697C114.899 117.501 114.557 117.249 114.305 116.942C114.053 116.63 113.887 116.304 113.807 115.964C113.691 115.46 113.633 114.716 113.633 113.733V109.042Z" fill="black"/>
<path d="M123.438 117.835V109.042H127.175C128.114 109.042 128.796 109.122 129.22 109.282C129.648 109.438 129.99 109.718 130.246 110.122C130.502 110.526 130.63 110.988 130.63 111.507C130.63 112.167 130.436 112.713 130.048 113.145C129.66 113.573 129.08 113.843 128.308 113.955C128.692 114.178 129.008 114.424 129.256 114.692C129.508 114.96 129.846 115.436 130.27 116.12L131.343 117.835H129.22L127.936 115.922C127.481 115.238 127.169 114.808 127.001 114.632C126.833 114.452 126.655 114.33 126.467 114.266C126.279 114.198 125.981 114.164 125.573 114.164H125.213V117.835H123.438ZM125.213 112.761H126.527C127.379 112.761 127.91 112.725 128.122 112.653C128.334 112.581 128.5 112.457 128.62 112.281C128.74 112.105 128.8 111.885 128.8 111.621C128.8 111.325 128.72 111.087 128.56 110.908C128.404 110.724 128.182 110.608 127.895 110.56C127.751 110.54 127.319 110.53 126.599 110.53H125.213V112.761Z" fill="black"/>
<path d="M57.5217 127.597C57.5217 126.701 57.6556 125.949 57.9236 125.341C58.1235 124.893 58.3954 124.492 58.7393 124.136C59.0872 123.78 59.4671 123.516 59.8789 123.344C60.4267 123.112 61.0585 122.996 61.7743 122.996C63.0699 122.996 64.1055 123.398 64.8813 124.202C65.661 125.005 66.0509 126.123 66.0509 127.555C66.0509 128.974 65.665 130.086 64.8933 130.889C64.1215 131.689 63.0899 132.089 61.7983 132.089C60.4907 132.089 59.4511 131.691 58.6793 130.895C57.9076 130.096 57.5217 128.996 57.5217 127.597ZM59.3511 127.537C59.3511 128.532 59.581 129.288 60.0409 129.804C60.5007 130.316 61.0845 130.572 61.7923 130.572C62.5001 130.572 63.0799 130.318 63.5317 129.81C63.9876 129.298 64.2155 128.532 64.2155 127.513C64.2155 126.505 63.9936 125.753 63.5497 125.257C63.1099 124.761 62.5241 124.514 61.7923 124.514C61.0605 124.514 60.4707 124.765 60.0229 125.269C59.575 125.769 59.3511 126.525 59.3511 127.537Z" fill="black"/>
<path d="M68.3404 123.146H70.1158V127.908C70.1158 128.664 70.1378 129.154 70.1818 129.378C70.2578 129.738 70.4377 130.028 70.7216 130.248C71.0095 130.464 71.4014 130.572 71.8972 130.572C72.4011 130.572 72.7809 130.47 73.0368 130.266C73.2928 130.058 73.4467 129.804 73.4987 129.504C73.5507 129.204 73.5767 128.706 73.5767 128.01V123.146H75.3521V127.764C75.3521 128.82 75.3041 129.566 75.2081 130.002C75.1122 130.438 74.9342 130.806 74.6743 131.105C74.4184 131.405 74.0745 131.645 73.6427 131.825C73.2108 132.001 72.647 132.089 71.9512 132.089C71.1115 132.089 70.4737 131.993 70.0378 131.801C69.606 131.605 69.2641 131.353 69.0122 131.045C68.7602 130.734 68.5943 130.408 68.5143 130.068C68.3984 129.564 68.3404 128.82 68.3404 127.836V123.146Z" fill="black"/>
<path d="M80.1188 131.939V124.634H77.5096V123.146H84.4973V124.634H81.8942V131.939H80.1188Z" fill="black"/>
<path d="M86.5709 131.939V123.146H92.5989V124.634H88.3463V126.715H92.0171V128.202H88.3463V131.939H86.5709Z" fill="black"/>
<path d="M94.9244 131.939V123.146H96.6998V131.939H94.9244Z" fill="black"/>
<path d="M101.287 131.939V124.634H98.6774V123.146H105.665V124.634H103.062V131.939H101.287Z" fill="black"/>
</g>
</g>
</g>
</svg>
