<svg width="13" height="13" viewBox="0 0 13 13" fill="none" xmlns="http://www.w3.org/2000/svg">
<path id="Vector" d="M11.4073 5.39471H7.59203V1.58263C7.59228 1.43927 7.56426 1.29728 7.50958 1.16476C7.45491 1.03224 7.37465 0.911794 7.27339 0.810316C7.17213 0.708838 7.05187 0.628314 6.91947 0.57335C6.78707 0.518386 6.64513 0.49006 6.50177 0.48999C6.35841 0.490059 6.21646 0.518397 6.08406 0.57338C5.95166 0.628364 5.8314 0.708915 5.73016 0.810425C5.62892 0.911935 5.54869 1.03241 5.49405 1.16496C5.43942 1.29751 5.41146 1.43953 5.41178 1.58289V5.39735H1.59468C1.30473 5.39728 1.02662 5.51238 0.821519 5.71733C0.616419 5.92228 0.501121 6.2003 0.50098 6.49025C0.500601 6.63413 0.528581 6.77668 0.58332 6.90974C0.638058 7.0428 0.718483 7.16377 0.819997 7.26573C0.92101 7.36776 1.0412 7.44882 1.17364 7.50425C1.30609 7.55968 1.44819 7.58838 1.59177 7.58871H5.41178V11.3979C5.41178 11.6997 5.53151 11.973 5.72921 12.1702C5.83033 12.2718 5.95056 12.3524 6.08297 12.4073C6.21538 12.4623 6.35736 12.4905 6.50072 12.4903C6.64411 12.4902 6.78609 12.4619 6.91855 12.407C7.05101 12.3521 7.17135 12.2716 7.27269 12.1702C7.37404 12.0687 7.4544 11.9483 7.50919 11.8158C7.56399 11.6833 7.59214 11.5413 7.59203 11.3979V7.58844H11.4073C12.0107 7.58844 12.4999 7.09499 12.4997 6.49158C12.4994 5.88843 12.0102 5.39471 11.4073 5.39471Z" fill="white"/>
</svg>
