<svg width="19" height="21" viewBox="0 0 19 21" fill="none" xmlns="http://www.w3.org/2000/svg">
<path id="Vector" d="M18.8944 19.8V17.8062C18.8944 17.1181 18.7615 16.4691 18.4957 15.8593C18.2298 15.2494 17.878 14.7177 17.4401 14.2642C16.9867 13.8108 16.455 13.455 15.8451 13.197C15.2352 12.939 14.5863 12.8099 13.8982 12.8099H5.87611C5.18805 12.8099 4.53909 12.939 3.92922 13.197C3.31935 13.455 2.78767 13.8108 2.33418 14.2642C1.89633 14.7177 1.54448 15.2494 1.27864 15.8593C1.0128 16.4691 0.879883 17.1181 0.879883 17.8062V19.8C0.879883 20.0814 0.977618 20.3199 1.17309 20.5154C1.36856 20.7109 1.60703 20.8086 1.88851 20.8086C2.15435 20.8086 2.38501 20.7109 2.58048 20.5154C2.77595 20.3199 2.87368 20.0814 2.87368 19.8V17.8062C2.87368 17.384 2.95187 16.993 3.10825 16.6333C3.26462 16.2737 3.48355 15.9609 3.76503 15.6951C4.03087 15.4136 4.34753 15.1947 4.71501 15.0383C5.0825 14.8819 5.46953 14.8037 5.87611 14.8037H13.8982C14.3048 14.8037 14.6918 14.8819 15.0593 15.0383C15.4268 15.1947 15.7435 15.4136 16.0093 15.6951C16.2908 15.9609 16.5097 16.2737 16.6661 16.6333C16.8225 16.993 16.9006 17.384 16.9006 17.8062V19.8C16.9006 20.0814 16.9984 20.3199 17.1939 20.5154C17.3893 20.7109 17.62 20.8086 17.8858 20.8086C18.1673 20.8086 18.4058 20.7109 18.6012 20.5154C18.7967 20.3199 18.8944 20.0814 18.8944 19.8ZM14.8834 5.79646C14.8834 5.1084 14.7544 4.45944 14.4964 3.84958C14.2383 3.23971 13.8826 2.70803 13.4291 2.25454C12.9756 1.80104 12.4439 1.44529 11.834 1.18727C11.2242 0.929245 10.5752 0.800236 9.88716 0.800236C9.19911 0.800236 8.55015 0.929245 7.94028 1.18727C7.33041 1.44529 6.79873 1.80104 6.34524 2.25454C5.89175 2.70803 5.53599 3.23971 5.27797 3.84958C5.01995 4.45944 4.89094 5.1084 4.89094 5.79646C4.89094 6.48452 5.01995 7.13348 5.27797 7.74335C5.53599 8.35321 5.89175 8.88489 6.34524 9.33839C6.79873 9.79188 7.33041 10.1476 7.94028 10.4057C8.55015 10.6637 9.19911 10.7927 9.88716 10.7927C10.5752 10.7927 11.2242 10.6637 11.834 10.4057C12.4439 10.1476 12.9756 9.79188 13.4291 9.33839C13.8826 8.88489 14.2383 8.35321 14.4964 7.74335C14.7544 7.13348 14.8834 6.48452 14.8834 5.79646ZM12.8896 5.79646C12.8896 6.21868 12.8114 6.60962 12.655 6.96928C12.4986 7.32895 12.2797 7.6417 11.9982 7.90754C11.7324 8.18902 11.4197 8.40795 11.06 8.56432C10.7003 8.7207 10.3094 8.79889 9.88716 8.79889C9.46495 8.79889 9.07401 8.7207 8.71434 8.56432C8.35467 8.40795 8.04192 8.18902 7.77608 7.90754C7.4946 7.6417 7.27568 7.32895 7.1193 6.96928C6.96292 6.60962 6.88474 6.21868 6.88474 5.79646C6.88474 5.37424 6.96292 4.9833 7.1193 4.62364C7.27568 4.26397 7.4946 3.95122 7.77608 3.68538C8.04192 3.4039 8.35467 3.18497 8.71434 3.0286C9.07401 2.87222 9.46495 2.79403 9.88716 2.79403C10.3094 2.79403 10.7003 2.87222 11.06 3.0286C11.4197 3.18497 11.7324 3.4039 11.9982 3.68538C12.2797 3.95122 12.4986 4.26397 12.655 4.62364C12.8114 4.9833 12.8896 5.37424 12.8896 5.79646Z" fill="#111111"/>
</svg>
